<svg width="56" height="57" viewBox="0 0 56 57" fill="none" xmlns="http://www.w3.org/2000/svg">
<path d="M45.1736 8.58704H10.8165C9.17345 8.58704 7.84009 9.88904 7.84009 11.4923V45.9978C7.84009 47.6034 9.17345 48.907 10.8165 48.907H45.1736C46.8178 48.907 48.1601 47.6034 48.1601 45.9978V11.4923C48.1601 9.88904 46.8178 8.58704 45.1736 8.58704ZM19.7983 42.9453H13.8153V23.7042H19.7983V42.9453ZM16.8068 21.0734C16.3514 21.0734 15.9005 20.9836 15.4798 20.8093C15.059 20.6349 14.6768 20.3794 14.3549 20.0573C14.033 19.7352 13.7777 19.3528 13.6036 18.9319C13.4296 18.5111 13.3401 18.0601 13.3404 17.6047C13.3404 16.6854 13.7056 15.8038 14.3556 15.1538C15.0056 14.5038 15.8873 14.1386 16.8065 14.1386C17.7258 14.1386 18.6074 14.5038 19.2574 15.1538C19.9075 15.8038 20.2726 16.6854 20.2726 17.6047C20.2726 18.5242 19.9076 19.406 19.2577 20.0564C18.6078 20.7068 17.7263 21.0726 16.8068 21.0734ZM42.1961 42.9453H36.2226V33.5888C36.2226 31.3566 36.1789 28.4866 33.114 28.4866C30.0015 28.4866 29.5272 30.9176 29.5272 33.427V42.9458H23.5492V23.7042H29.2864V26.3318H29.3682C30.1667 24.8198 32.1178 23.2243 35.0275 23.2243C41.0789 23.2243 42.1966 27.2082 42.1966 32.391V42.9453H42.1961Z" fill="black"/>
</svg>
