<svg width="195" height="24" viewBox="0 0 195 24" fill="none" xmlns="http://www.w3.org/2000/svg">
<path d="M5.21152 8.8699H5.91152C6.20319 8.8699 6.44902 8.82824 6.64902 8.7449C6.85736 8.65324 7.04486 8.5074 7.21152 8.3074L12.4365 1.9324C12.6449 1.6574 12.8699 1.47407 13.1115 1.3824C13.3615 1.2824 13.649 1.2324 13.974 1.2324H16.7615L10.3615 8.7949C10.1782 9.02824 9.99486 9.22407 9.81152 9.3824C9.62819 9.5324 9.43652 9.65324 9.23652 9.7449C9.47819 9.8449 9.69069 9.9824 9.87402 10.1574C10.0657 10.3241 10.2324 10.5532 10.374 10.8449L14.974 19.3074H12.1115C11.9199 19.3074 11.7574 19.2949 11.624 19.2699C11.4907 19.2366 11.374 19.1949 11.274 19.1449C11.1824 19.0866 11.1032 19.0199 11.0365 18.9449C10.9782 18.8616 10.924 18.7699 10.874 18.6699L7.14902 11.9324C7.04069 11.7074 6.89069 11.5491 6.69902 11.4574C6.51569 11.3657 6.24486 11.3199 5.88652 11.3199H4.91152L3.93652 19.3074H0.711524L2.91152 1.2199H6.16152L5.21152 8.8699ZM20.2051 9.5574C20.5301 8.92407 20.8759 8.3824 21.2426 7.9324C21.6176 7.47407 22.0051 7.1199 22.4051 6.8699C22.8051 6.61157 23.2176 6.46157 23.6426 6.4199C24.0676 6.3699 24.4926 6.43657 24.9176 6.6199L24.3551 9.5699C23.3384 9.1449 22.4467 9.24907 21.6801 9.8824C20.9217 10.5157 20.3134 11.7616 19.8551 13.6199L19.1676 19.3074H16.1426L17.6926 6.4699H19.2676C19.5926 6.4699 19.8426 6.54907 20.0176 6.7074C20.2009 6.86574 20.2926 7.1199 20.2926 7.4699L20.2051 9.5574ZM29.6805 6.4824L28.143 19.3074H25.1055L26.643 6.4824H29.6805ZM30.468 2.7449C30.468 3.01157 30.4096 3.26157 30.293 3.4949C30.1846 3.72824 30.0388 3.9324 29.8555 4.1074C29.6721 4.2824 29.4638 4.42407 29.2305 4.5324C28.9971 4.6324 28.7555 4.6824 28.5055 4.6824C28.2638 4.6824 28.0305 4.6324 27.8055 4.5324C27.5805 4.42407 27.3805 4.2824 27.2055 4.1074C27.0305 3.9324 26.8888 3.72824 26.7805 3.4949C26.6805 3.26157 26.6305 3.01157 26.6305 2.7449C26.6305 2.47824 26.6846 2.22407 26.793 1.9824C26.9013 1.74074 27.043 1.5324 27.218 1.3574C27.393 1.17407 27.593 1.0324 27.818 0.932403C28.0513 0.82407 28.2888 0.769903 28.5305 0.769903C28.7805 0.769903 29.0221 0.82407 29.2555 0.932403C29.4888 1.0324 29.693 1.1699 29.868 1.3449C30.0513 1.5199 30.1971 1.72824 30.3055 1.9699C30.4138 2.21157 30.468 2.4699 30.468 2.7449ZM39.6584 8.8949C39.5667 9.02824 39.4792 9.12407 39.3959 9.1824C39.3126 9.2324 39.2042 9.2574 39.0709 9.2574C38.9209 9.2574 38.7709 9.21574 38.6209 9.1324C38.4709 9.04907 38.2959 8.9574 38.0959 8.8574C37.9042 8.74907 37.6792 8.65324 37.4209 8.5699C37.1709 8.48657 36.8709 8.4449 36.5209 8.4449C35.8626 8.4449 35.3584 8.5949 35.0084 8.8949C34.6584 9.18657 34.4834 9.55324 34.4834 9.9949C34.4834 10.3366 34.6042 10.6116 34.8459 10.8199C35.0959 11.0282 35.4084 11.2116 35.7834 11.3699C36.1584 11.5282 36.5584 11.6907 36.9834 11.8574C37.4167 12.0157 37.8209 12.2199 38.1959 12.4699C38.5709 12.7116 38.8792 13.0282 39.1209 13.4199C39.3709 13.8032 39.4959 14.2991 39.4959 14.9074C39.4959 15.5241 39.3709 16.1116 39.1209 16.6699C38.8792 17.2282 38.5292 17.7199 38.0709 18.1449C37.6126 18.5616 37.0584 18.8949 36.4084 19.1449C35.7667 19.3866 35.0417 19.5074 34.2334 19.5074C33.8334 19.5074 33.4417 19.4657 33.0584 19.3824C32.6751 19.3074 32.3167 19.1991 31.9834 19.0574C31.6584 18.9157 31.3584 18.7491 31.0834 18.5574C30.8084 18.3657 30.5751 18.1574 30.3834 17.9324L31.1459 16.7574C31.2376 16.6157 31.3459 16.5074 31.4709 16.4324C31.5959 16.3574 31.7501 16.3199 31.9334 16.3199C32.1084 16.3199 32.2667 16.3741 32.4084 16.4824C32.5501 16.5907 32.7126 16.7116 32.8959 16.8449C33.0876 16.9699 33.3167 17.0866 33.5834 17.1949C33.8584 17.3032 34.2084 17.3574 34.6334 17.3574C34.9751 17.3574 35.2751 17.3116 35.5334 17.2199C35.8001 17.1282 36.0251 17.0032 36.2084 16.8449C36.3917 16.6866 36.5292 16.5032 36.6209 16.2949C36.7126 16.0866 36.7584 15.8657 36.7584 15.6324C36.7584 15.3491 36.6876 15.1157 36.5459 14.9324C36.4042 14.7407 36.2126 14.5782 35.9709 14.4449C35.7376 14.3032 35.4709 14.1824 35.1709 14.0824C34.8709 13.9741 34.5626 13.8616 34.2459 13.7449C33.9376 13.6282 33.6334 13.4949 33.3334 13.3449C33.0417 13.1949 32.7751 13.0074 32.5334 12.7824C32.3001 12.5491 32.1126 12.2699 31.9709 11.9449C31.8292 11.6116 31.7584 11.2074 31.7584 10.7324C31.7584 10.1657 31.8667 9.61574 32.0834 9.0824C32.3001 8.54074 32.6167 8.06574 33.0334 7.6574C33.4501 7.24074 33.9626 6.9074 34.5709 6.6574C35.1876 6.4074 35.8917 6.2824 36.6834 6.2824C37.5001 6.2824 38.2251 6.42407 38.8584 6.7074C39.4917 6.9824 40.0209 7.33657 40.4459 7.7699L39.6584 8.8949ZM53.2777 19.3074H50.3027L51.6027 8.7449H46.2652L45.5652 14.3824C45.5236 14.7241 45.4902 14.9949 45.4652 15.1949C45.4402 15.3949 45.4194 15.5532 45.4027 15.6699C45.3944 15.7782 45.3861 15.8574 45.3777 15.9074C45.3777 15.9491 45.3777 15.9782 45.3777 15.9949C45.3777 16.3116 45.4527 16.5616 45.6027 16.7449C45.7611 16.9282 45.9819 17.0199 46.2652 17.0199C46.4402 17.0199 46.5902 16.9991 46.7152 16.9574C46.8402 16.9074 46.9486 16.8574 47.0402 16.8074C47.1319 16.7574 47.2152 16.7116 47.2902 16.6699C47.3652 16.6199 47.4361 16.5949 47.5027 16.5949C47.5944 16.5949 47.6652 16.6199 47.7152 16.6699C47.7652 16.7116 47.8111 16.7782 47.8527 16.8699L48.5277 18.3699C48.0611 18.7449 47.5486 19.0282 46.9902 19.2199C46.4402 19.4116 45.8819 19.5074 45.3152 19.5074C44.4069 19.5074 43.6861 19.2616 43.1527 18.7699C42.6277 18.2782 42.3486 17.5866 42.3152 16.6949C42.3152 16.6366 42.3152 16.5699 42.3152 16.4949C42.3152 16.4116 42.3194 16.2949 42.3277 16.1449C42.3444 15.9866 42.3652 15.7824 42.3902 15.5324C42.4236 15.2741 42.4652 14.9449 42.5152 14.5449L43.2277 8.7449H42.0777C41.9111 8.7449 41.7777 8.6949 41.6777 8.5949C41.5861 8.48657 41.5527 8.32824 41.5777 8.1199L41.7277 6.9324L43.6277 6.6074L44.6777 3.0824C44.7277 2.91574 44.8111 2.78657 44.9277 2.6949C45.0444 2.60324 45.1902 2.5574 45.3652 2.5574H47.0277L46.5277 6.6324H54.8402L53.2777 19.3074ZM55.9027 2.7449C55.9027 3.01157 55.8444 3.26157 55.7277 3.4949C55.6194 3.72824 55.4736 3.9324 55.2902 4.1074C55.1152 4.2824 54.9111 4.42407 54.6777 4.5324C54.4444 4.6324 54.2027 4.6824 53.9527 4.6824C53.7111 4.6824 53.4736 4.6324 53.2402 4.5324C53.0152 4.42407 52.8152 4.2824 52.6402 4.1074C52.4652 3.9324 52.3236 3.72824 52.2152 3.4949C52.1152 3.26157 52.0652 3.01157 52.0652 2.7449C52.0652 2.47824 52.1194 2.22407 52.2277 1.9824C52.3361 1.74074 52.4777 1.5324 52.6527 1.3574C52.8277 1.17407 53.0277 1.0324 53.2527 0.932403C53.4861 0.82407 53.7236 0.769903 53.9652 0.769903C54.2152 0.769903 54.4569 0.82407 54.6902 0.932403C54.9236 1.0324 55.1277 1.1699 55.3027 1.3449C55.4861 1.5199 55.6319 1.72824 55.7402 1.9699C55.8486 2.21157 55.9027 2.4699 55.9027 2.7449ZM60.3174 9.1324C60.9674 8.17407 61.6882 7.46157 62.4799 6.9949C63.2715 6.5199 64.0882 6.2824 64.9299 6.2824C65.4632 6.2824 65.9424 6.39074 66.3674 6.6074C66.7924 6.82407 67.1424 7.14074 67.4174 7.5574C67.6924 7.96574 67.884 8.47407 67.9924 9.0824C68.109 9.6824 68.1174 10.3699 68.0174 11.1449L67.0549 19.3074H63.9674L64.9299 11.1449C65.0382 10.3116 64.9965 9.71574 64.8049 9.3574C64.6132 8.99074 64.2632 8.8074 63.7549 8.8074C63.4132 8.8074 63.0632 8.9074 62.7049 9.1074C62.3465 9.29907 62.0007 9.57824 61.6674 9.9449C61.334 10.3032 61.0257 10.7366 60.7424 11.2449C60.4674 11.7449 60.2424 12.3074 60.0674 12.9324L59.3549 19.3074H56.2674L57.8049 6.4699H59.3674C59.6924 6.4699 59.9424 6.54907 60.1174 6.7074C60.3007 6.86574 60.3924 7.1199 60.3924 7.4699L60.3174 9.1324Z" fill="black"/>
<path d="M99.942 1.3574L92.592 19.3074H90.267L87.942 5.8574C87.917 5.71574 87.892 5.56574 87.867 5.4074C87.8503 5.24074 87.8337 5.06157 87.817 4.8699C87.692 5.23657 87.5712 5.56574 87.4545 5.8574L81.817 19.3074H79.517L76.567 1.3574H78.5795C78.8045 1.3574 78.9837 1.41157 79.117 1.5199C79.2587 1.62824 79.3378 1.77407 79.3545 1.9574L81.2045 14.2199C81.2212 14.4532 81.2378 14.7032 81.2545 14.9699C81.2795 15.2282 81.3003 15.5032 81.317 15.7949C81.4087 15.5032 81.5003 15.2241 81.592 14.9574C81.692 14.6907 81.7878 14.4449 81.8795 14.2199L87.0295 1.9574C87.0962 1.8074 87.2128 1.6699 87.3795 1.5449C87.5462 1.4199 87.7378 1.3574 87.9545 1.3574H88.542C88.767 1.3574 88.942 1.41574 89.067 1.5324C89.2003 1.64074 89.292 1.7824 89.342 1.9574L91.467 14.2199C91.5087 14.4449 91.542 14.6866 91.567 14.9449C91.6003 15.2032 91.6295 15.4741 91.6545 15.7574C91.8128 15.1991 91.9712 14.6866 92.1295 14.2199L96.9795 1.9574C97.0295 1.79907 97.1462 1.66157 97.3295 1.5449C97.5128 1.4199 97.7128 1.3574 97.9295 1.3574H99.942ZM104.849 8.1699C104.349 8.1699 103.89 8.27407 103.474 8.4824C103.057 8.6824 102.682 8.96574 102.349 9.3324C102.015 9.69074 101.732 10.1157 101.499 10.6074C101.265 11.0907 101.082 11.6199 100.949 12.1949C102.174 12.0366 103.153 11.8616 103.886 11.6699C104.628 11.4782 105.199 11.2699 105.599 11.0449C105.999 10.8116 106.261 10.5657 106.386 10.3074C106.52 10.0491 106.586 9.77407 106.586 9.4824C106.586 9.34074 106.553 9.1949 106.486 9.0449C106.428 8.88657 106.328 8.7449 106.186 8.6199C106.053 8.48657 105.874 8.37824 105.649 8.2949C105.432 8.21157 105.165 8.1699 104.849 8.1699ZM108.474 16.9574C108.04 17.3991 107.62 17.7782 107.211 18.0949C106.803 18.4116 106.382 18.6741 105.949 18.8824C105.524 19.0907 105.078 19.2407 104.611 19.3324C104.145 19.4324 103.636 19.4824 103.086 19.4824C102.361 19.4824 101.703 19.3616 101.111 19.1199C100.528 18.8699 100.032 18.5199 99.6238 18.0699C99.2155 17.6199 98.8988 17.0782 98.6738 16.4449C98.4572 15.8032 98.3488 15.0866 98.3488 14.2949C98.3488 13.6366 98.4155 12.9866 98.5488 12.3449C98.6905 11.6949 98.8947 11.0824 99.1613 10.5074C99.428 9.92407 99.753 9.3824 100.136 8.8824C100.52 8.3824 100.957 7.95324 101.449 7.5949C101.94 7.22824 102.482 6.9449 103.074 6.7449C103.665 6.53657 104.303 6.4324 104.986 6.4324C105.636 6.4324 106.199 6.52407 106.674 6.7074C107.149 6.89074 107.54 7.12824 107.849 7.4199C108.165 7.70324 108.399 8.0199 108.549 8.3699C108.699 8.7199 108.774 9.06157 108.774 9.3949C108.774 9.9449 108.661 10.4532 108.436 10.9199C108.211 11.3782 107.799 11.7949 107.199 12.1699C106.607 12.5366 105.79 12.8574 104.749 13.1324C103.707 13.4074 102.37 13.6282 100.736 13.7949C100.728 13.8699 100.724 13.9449 100.724 14.0199C100.724 14.0949 100.724 14.1699 100.724 14.2449C100.724 15.3366 100.957 16.1616 101.424 16.7199C101.899 17.2782 102.611 17.5574 103.561 17.5574C103.953 17.5574 104.303 17.5199 104.611 17.4449C104.92 17.3616 105.19 17.2616 105.424 17.1449C105.665 17.0282 105.878 16.9032 106.061 16.7699C106.245 16.6282 106.411 16.4991 106.561 16.3824C106.72 16.2657 106.865 16.1699 106.999 16.0949C107.132 16.0116 107.27 15.9699 107.411 15.9699C107.503 15.9699 107.582 15.9949 107.649 16.0449C107.724 16.0866 107.795 16.1407 107.861 16.2074L108.474 16.9574ZM118.623 8.7324C118.548 8.84074 118.473 8.9199 118.398 8.9699C118.331 9.01157 118.244 9.0324 118.136 9.0324C118.011 9.0324 117.877 8.98657 117.736 8.8949C117.602 8.80324 117.436 8.70324 117.236 8.5949C117.044 8.48657 116.811 8.38657 116.536 8.2949C116.261 8.20324 115.927 8.1574 115.536 8.1574C115.169 8.1574 114.84 8.2074 114.548 8.3074C114.256 8.4074 114.002 8.5449 113.786 8.7199C113.577 8.88657 113.415 9.08657 113.298 9.3199C113.19 9.55324 113.136 9.79907 113.136 10.0574C113.136 10.3407 113.211 10.5782 113.361 10.7699C113.511 10.9616 113.706 11.1324 113.948 11.2824C114.19 11.4241 114.465 11.5532 114.773 11.6699C115.09 11.7866 115.411 11.9116 115.736 12.0449C116.061 12.1699 116.377 12.3116 116.686 12.4699C117.002 12.6282 117.281 12.8241 117.523 13.0574C117.765 13.2824 117.961 13.5574 118.111 13.8824C118.261 14.2074 118.336 14.5949 118.336 15.0449C118.336 15.6366 118.219 16.2032 117.986 16.7449C117.752 17.2782 117.415 17.7532 116.973 18.1699C116.54 18.5782 116.015 18.9032 115.398 19.1449C114.781 19.3866 114.09 19.5074 113.323 19.5074C112.515 19.5074 111.794 19.3616 111.161 19.0699C110.527 18.7782 110.015 18.4074 109.623 17.9574L110.223 17.0199C110.381 16.7782 110.594 16.6574 110.861 16.6574C111.002 16.6574 111.14 16.7157 111.273 16.8324C111.415 16.9491 111.586 17.0782 111.786 17.2199C111.986 17.3532 112.231 17.4782 112.523 17.5949C112.815 17.7116 113.19 17.7699 113.648 17.7699C114.04 17.7699 114.39 17.7116 114.698 17.5949C115.015 17.4782 115.281 17.3241 115.498 17.1324C115.715 16.9324 115.877 16.7032 115.986 16.4449C116.102 16.1866 116.161 15.9116 116.161 15.6199C116.161 15.3116 116.086 15.0532 115.936 14.8449C115.786 14.6282 115.59 14.4491 115.348 14.3074C115.106 14.1574 114.827 14.0282 114.511 13.9199C114.202 13.8032 113.886 13.6866 113.561 13.5699C113.244 13.4449 112.927 13.3116 112.611 13.1699C112.302 13.0199 112.027 12.8324 111.786 12.6074C111.544 12.3824 111.348 12.1116 111.198 11.7949C111.048 11.4699 110.973 11.0782 110.973 10.6199C110.973 10.0782 111.081 9.5574 111.298 9.0574C111.515 8.54907 111.823 8.09907 112.223 7.7074C112.631 7.31574 113.123 7.00324 113.698 6.7699C114.281 6.53657 114.94 6.4199 115.673 6.4199C116.456 6.4199 117.14 6.54907 117.723 6.8074C118.315 7.0574 118.823 7.40324 119.248 7.8449L118.623 8.7324ZM121.42 16.8574C121.42 16.8074 121.42 16.7449 121.42 16.6699C121.42 16.5866 121.424 16.4699 121.432 16.3199C121.449 16.1699 121.47 15.9699 121.495 15.7199C121.528 15.4699 121.57 15.1491 121.62 14.7574L122.382 8.5824H121.02C120.895 8.5824 120.791 8.54074 120.707 8.4574C120.632 8.36574 120.607 8.2324 120.632 8.0574L120.745 7.0699L122.682 6.7824L123.657 2.9949C123.699 2.85324 123.766 2.7449 123.857 2.6699C123.957 2.58657 124.078 2.5449 124.22 2.5449H125.52L124.982 6.8074H128.245L128.045 8.5824H124.77L124.02 14.6324C123.978 14.9741 123.945 15.2491 123.92 15.4574C123.895 15.6657 123.874 15.8324 123.857 15.9574C123.849 16.0741 123.841 16.1574 123.832 16.2074C123.832 16.2574 123.832 16.2949 123.832 16.3199C123.832 16.7116 123.928 17.0074 124.12 17.2074C124.311 17.4074 124.566 17.5074 124.882 17.5074C125.091 17.5074 125.27 17.4782 125.42 17.4199C125.578 17.3616 125.716 17.2991 125.832 17.2324C125.949 17.1574 126.045 17.0907 126.12 17.0324C126.203 16.9741 126.278 16.9449 126.345 16.9449C126.42 16.9449 126.478 16.9657 126.52 17.0074C126.561 17.0407 126.603 17.0991 126.645 17.1824L127.157 18.3574C126.732 18.7241 126.257 19.0074 125.732 19.2074C125.207 19.4074 124.678 19.5074 124.145 19.5074C123.311 19.5074 122.653 19.2824 122.17 18.8324C121.686 18.3741 121.436 17.7157 121.42 16.8574ZM135.562 8.1699C135.062 8.1699 134.603 8.27407 134.187 8.4824C133.77 8.6824 133.395 8.96574 133.062 9.3324C132.728 9.69074 132.445 10.1157 132.212 10.6074C131.978 11.0907 131.795 11.6199 131.662 12.1949C132.887 12.0366 133.866 11.8616 134.599 11.6699C135.341 11.4782 135.912 11.2699 136.312 11.0449C136.712 10.8116 136.974 10.5657 137.099 10.3074C137.233 10.0491 137.299 9.77407 137.299 9.4824C137.299 9.34074 137.266 9.1949 137.199 9.0449C137.141 8.88657 137.041 8.7449 136.899 8.6199C136.766 8.48657 136.587 8.37824 136.362 8.2949C136.145 8.21157 135.878 8.1699 135.562 8.1699ZM139.187 16.9574C138.753 17.3991 138.333 17.7782 137.924 18.0949C137.516 18.4116 137.095 18.6741 136.662 18.8824C136.237 19.0907 135.791 19.2407 135.324 19.3324C134.858 19.4324 134.349 19.4824 133.799 19.4824C133.074 19.4824 132.416 19.3616 131.824 19.1199C131.241 18.8699 130.745 18.5199 130.337 18.0699C129.928 17.6199 129.612 17.0782 129.387 16.4449C129.17 15.8032 129.062 15.0866 129.062 14.2949C129.062 13.6366 129.128 12.9866 129.262 12.3449C129.403 11.6949 129.608 11.0824 129.874 10.5074C130.141 9.92407 130.466 9.3824 130.849 8.8824C131.233 8.3824 131.67 7.95324 132.162 7.5949C132.653 7.22824 133.195 6.9449 133.787 6.7449C134.378 6.53657 135.016 6.4324 135.699 6.4324C136.349 6.4324 136.912 6.52407 137.387 6.7074C137.862 6.89074 138.253 7.12824 138.562 7.4199C138.878 7.70324 139.112 8.0199 139.262 8.3699C139.412 8.7199 139.487 9.06157 139.487 9.3949C139.487 9.9449 139.374 10.4532 139.149 10.9199C138.924 11.3782 138.512 11.7949 137.912 12.1699C137.32 12.5366 136.503 12.8574 135.462 13.1324C134.42 13.4074 133.083 13.6282 131.449 13.7949C131.441 13.8699 131.437 13.9449 131.437 14.0199C131.437 14.0949 131.437 14.1699 131.437 14.2449C131.437 15.3366 131.67 16.1616 132.137 16.7199C132.612 17.2782 133.324 17.5574 134.274 17.5574C134.666 17.5574 135.016 17.5199 135.324 17.4449C135.633 17.3616 135.903 17.2616 136.137 17.1449C136.378 17.0282 136.591 16.9032 136.774 16.7699C136.958 16.6282 137.124 16.4991 137.274 16.3824C137.433 16.2657 137.578 16.1699 137.712 16.0949C137.845 16.0116 137.983 15.9699 138.124 15.9699C138.216 15.9699 138.295 15.9949 138.362 16.0449C138.437 16.0866 138.508 16.1407 138.574 16.2074L139.187 16.9574ZM144.473 10.0324C144.807 9.34074 145.165 8.7449 145.548 8.2449C145.932 7.73657 146.332 7.34074 146.748 7.0574C147.165 6.76574 147.594 6.59074 148.036 6.5324C148.486 6.46574 148.936 6.5324 149.386 6.7324L148.948 9.0824C147.873 8.64907 146.932 8.7949 146.123 9.5199C145.315 10.2449 144.661 11.5866 144.161 13.5449L143.461 19.3074H141.073L142.611 6.5824H143.836C144.103 6.5824 144.307 6.64907 144.448 6.7824C144.59 6.91574 144.661 7.12407 144.661 7.4074L144.473 10.0324ZM156.795 19.5449C156.795 19.3532 156.778 19.1741 156.745 19.0074C156.72 18.8407 156.683 18.6866 156.633 18.5449C155.558 18.3616 154.633 18.2907 153.858 18.3324C153.083 18.3741 152.441 18.4907 151.933 18.6824C151.433 18.8657 151.062 19.1074 150.82 19.4074C150.587 19.7074 150.47 20.0282 150.47 20.3699C150.47 20.9449 150.708 21.3824 151.183 21.6824C151.658 21.9824 152.349 22.1324 153.258 22.1324C153.783 22.1324 154.262 22.0616 154.695 21.9199C155.137 21.7866 155.512 21.6032 155.82 21.3699C156.128 21.1366 156.366 20.8616 156.533 20.5449C156.708 20.2282 156.795 19.8949 156.795 19.5449ZM154.42 13.5199C154.845 13.5199 155.224 13.4241 155.558 13.2324C155.891 13.0407 156.17 12.7907 156.395 12.4824C156.62 12.1741 156.791 11.8282 156.908 11.4449C157.024 11.0532 157.087 10.6574 157.095 10.2574C157.095 9.54907 156.916 9.01157 156.558 8.6449C156.208 8.27824 155.72 8.0949 155.095 8.0949C154.67 8.0949 154.291 8.18657 153.958 8.3699C153.633 8.5449 153.358 8.7824 153.133 9.0824C152.908 9.37407 152.737 9.71574 152.62 10.1074C152.503 10.4907 152.445 10.8866 152.445 11.2949C152.445 12.0116 152.616 12.5616 152.958 12.9449C153.308 13.3282 153.795 13.5199 154.42 13.5199ZM161.258 7.0574L161.145 7.8699C161.103 8.20324 160.928 8.4199 160.62 8.5199L159.12 8.8199C159.187 9.01157 159.237 9.2199 159.27 9.4449C159.303 9.6699 159.32 9.9074 159.32 10.1574C159.312 10.5657 159.262 10.9366 159.17 11.2699C159.078 11.5949 158.962 11.8949 158.82 12.1699C158.687 12.4449 158.541 12.7074 158.383 12.9574C158.224 13.1991 158.074 13.4449 157.933 13.6949C157.799 13.9366 157.687 14.1907 157.595 14.4574C157.503 14.7157 157.458 14.9991 157.458 15.3074C157.458 15.6491 157.537 15.9657 157.695 16.2574C157.862 16.5407 158.041 16.8366 158.233 17.1449C158.433 17.4449 158.612 17.7699 158.77 18.1199C158.937 18.4699 159.02 18.8824 159.02 19.3574C159.012 19.9574 158.87 20.5282 158.595 21.0699C158.32 21.6116 157.924 22.0866 157.408 22.4949C156.899 22.9116 156.274 23.2407 155.533 23.4824C154.799 23.7241 153.97 23.8449 153.045 23.8449C152.303 23.8449 151.628 23.7657 151.02 23.6074C150.42 23.4574 149.908 23.2407 149.483 22.9574C149.058 22.6824 148.728 22.3491 148.495 21.9574C148.262 21.5657 148.145 21.1366 148.145 20.6699C148.145 20.1282 148.262 19.6491 148.495 19.2324C148.72 18.8157 149.028 18.4616 149.42 18.1699C149.812 17.8699 150.266 17.6282 150.783 17.4449C151.299 17.2532 151.845 17.1157 152.42 17.0324C152.995 16.9407 153.578 16.8991 154.17 16.9074C154.77 16.9074 155.349 16.9491 155.908 17.0324C155.841 16.8907 155.787 16.7407 155.745 16.5824C155.712 16.4241 155.695 16.2491 155.695 16.0574C155.695 15.8074 155.733 15.5449 155.808 15.2699C155.883 14.9866 156.003 14.6824 156.17 14.3574C155.853 14.5741 155.499 14.7407 155.108 14.8574C154.716 14.9741 154.262 15.0324 153.745 15.0324C153.262 15.0324 152.808 14.9532 152.383 14.7949C151.958 14.6366 151.583 14.4032 151.258 14.0949C150.941 13.7782 150.687 13.3866 150.495 12.9199C150.312 12.4532 150.22 11.9074 150.22 11.2824C150.22 10.6741 150.333 10.0782 150.558 9.4949C150.783 8.91157 151.112 8.3949 151.545 7.9449C151.978 7.48657 152.516 7.1199 153.158 6.8449C153.799 6.56157 154.537 6.4199 155.37 6.4199C155.82 6.4199 156.249 6.47407 156.658 6.5824C157.066 6.6824 157.437 6.84074 157.77 7.0574H161.258ZM170.023 8.2699C169.698 8.2199 169.378 8.1949 169.061 8.1949C168.319 8.1949 167.623 8.3699 166.973 8.7199C166.323 9.06157 165.757 9.52407 165.273 10.1074C164.798 10.6907 164.419 11.3699 164.136 12.1449C163.861 12.9116 163.723 13.7157 163.723 14.5574C163.723 15.5324 163.882 16.2616 164.198 16.7449C164.515 17.2199 164.973 17.4574 165.573 17.4574C165.965 17.4574 166.348 17.3324 166.723 17.0824C167.107 16.8241 167.465 16.4741 167.798 16.0324C168.14 15.5824 168.453 15.0532 168.736 14.4449C169.028 13.8366 169.282 13.1741 169.498 12.4574L170.023 8.2699ZM169.173 16.1324C168.882 16.6407 168.565 17.1032 168.223 17.5199C167.89 17.9282 167.532 18.2782 167.148 18.5699C166.773 18.8616 166.373 19.0866 165.948 19.2449C165.532 19.4032 165.098 19.4824 164.648 19.4824C164.148 19.4824 163.69 19.3866 163.273 19.1949C162.865 18.9949 162.511 18.7074 162.211 18.3324C161.919 17.9491 161.69 17.4782 161.523 16.9199C161.365 16.3616 161.286 15.7199 161.286 14.9949C161.286 14.2449 161.378 13.5116 161.561 12.7949C161.753 12.0699 162.023 11.3907 162.373 10.7574C162.723 10.1241 163.14 9.54074 163.623 9.0074C164.115 8.47407 164.661 8.01574 165.261 7.6324C165.861 7.24907 166.507 6.95324 167.198 6.7449C167.898 6.52824 168.628 6.4199 169.386 6.4199C169.936 6.4199 170.473 6.46574 170.998 6.5574C171.532 6.64074 172.057 6.79074 172.573 7.0074L171.048 19.3074H169.773C169.457 19.3074 169.244 19.2282 169.136 19.0699C169.028 18.9032 168.973 18.7032 168.973 18.4699L169.173 16.1324ZM167.336 2.8324C167.378 2.47407 167.478 2.14907 167.636 1.8574C167.794 1.56574 167.994 1.31574 168.236 1.1074C168.478 0.890736 168.744 0.724069 169.036 0.607403C169.336 0.490736 169.644 0.432402 169.961 0.432402C170.286 0.432402 170.586 0.490736 170.861 0.607403C171.136 0.724069 171.369 0.890736 171.561 1.1074C171.761 1.31574 171.907 1.56574 171.998 1.8574C172.098 2.14907 172.128 2.47407 172.086 2.8324C172.044 3.1824 171.94 3.50324 171.773 3.7949C171.615 4.08657 171.415 4.33657 171.173 4.5449C170.932 4.7449 170.661 4.90324 170.361 5.0199C170.061 5.13657 169.748 5.1949 169.423 5.1949C169.107 5.1949 168.811 5.13657 168.536 5.0199C168.269 4.90324 168.04 4.7449 167.848 4.5449C167.657 4.33657 167.511 4.08657 167.411 3.7949C167.319 3.50324 167.294 3.1824 167.336 2.8324ZM168.586 2.8324C168.544 3.19074 168.611 3.4824 168.786 3.7074C168.961 3.9324 169.228 4.0449 169.586 4.0449C169.919 4.0449 170.198 3.9324 170.423 3.7074C170.657 3.4824 170.794 3.19074 170.836 2.8324C170.878 2.46574 170.807 2.1699 170.623 1.9449C170.44 1.7199 170.182 1.6074 169.848 1.6074C169.498 1.6074 169.211 1.7199 168.986 1.9449C168.761 2.1699 168.628 2.46574 168.586 2.8324ZM177.628 10.0324C177.961 9.34074 178.319 8.7449 178.703 8.2449C179.086 7.73657 179.486 7.34074 179.903 7.0574C180.319 6.76574 180.749 6.59074 181.19 6.5324C181.64 6.46574 182.09 6.5324 182.54 6.7324L182.103 9.0824C181.028 8.64907 180.086 8.7949 179.278 9.5199C178.469 10.2449 177.815 11.5866 177.315 13.5449L176.615 19.3074H174.228L175.765 6.5824H176.99C177.257 6.5824 177.461 6.64907 177.603 6.7824C177.744 6.91574 177.815 7.12407 177.815 7.4074L177.628 10.0324ZM191.306 9.4199C190.998 9.01157 190.631 8.72407 190.206 8.5574C189.781 8.39074 189.356 8.3074 188.931 8.3074C188.515 8.3074 188.119 8.3949 187.744 8.5699C187.377 8.7449 187.04 8.9824 186.731 9.2824C186.431 9.5824 186.161 9.93657 185.919 10.3449C185.677 10.7532 185.473 11.1907 185.306 11.6574C185.14 12.1241 185.011 12.6074 184.919 13.1074C184.836 13.6074 184.794 14.0991 184.794 14.5824C184.794 15.5491 184.965 16.2824 185.306 16.7824C185.648 17.2824 186.131 17.5324 186.756 17.5324C187.14 17.5324 187.527 17.4116 187.919 17.1699C188.319 16.9199 188.698 16.5782 189.056 16.1449C189.423 15.7116 189.765 15.1991 190.081 14.6074C190.398 14.0157 190.673 13.3699 190.906 12.6699L191.306 9.4199ZM194.756 0.857403L192.481 19.3074H191.206C190.89 19.3074 190.677 19.2282 190.569 19.0699C190.461 18.9032 190.406 18.7032 190.406 18.4699L190.619 16.0324C190.302 16.5574 189.956 17.0324 189.581 17.4574C189.215 17.8824 188.827 18.2449 188.419 18.5449C188.019 18.8449 187.598 19.0782 187.156 19.2449C186.723 19.4032 186.277 19.4824 185.819 19.4824C184.752 19.4824 183.911 19.0907 183.294 18.3074C182.686 17.5241 182.381 16.3616 182.381 14.8199C182.381 14.1282 182.452 13.4407 182.594 12.7574C182.744 12.0657 182.948 11.4116 183.206 10.7949C183.473 10.1699 183.79 9.59074 184.156 9.0574C184.531 8.52407 184.948 8.06157 185.406 7.6699C185.865 7.27824 186.356 6.97407 186.881 6.7574C187.415 6.5324 187.973 6.4199 188.556 6.4199C189.173 6.4199 189.731 6.53657 190.231 6.7699C190.74 7.00324 191.169 7.3324 191.519 7.7574L192.369 0.857403H194.756Z" fill="#4E5865"/>
</svg>
